<?xml version="1.0" encoding="UTF-8" standalone="no"?>
<!-- Creator: CorelDRAW X7 -->

<svg
   xmlns:dc="http://purl.org/dc/elements/1.1/"
   xmlns:cc="http://creativecommons.org/ns#"
   xmlns:rdf="http://www.w3.org/1999/02/22-rdf-syntax-ns#"
   xmlns:svg="http://www.w3.org/2000/svg"
   xmlns="http://www.w3.org/2000/svg"
   xmlns:sodipodi="http://sodipodi.sourceforge.net/DTD/sodipodi-0.dtd"
   xmlns:inkscape="http://www.inkscape.org/namespaces/inkscape"
   xml:space="preserve"
   width="1041.8632mm"
   height="369.78149mm"
   version="1.1"
   style="clip-rule:evenodd;fill-rule:evenodd;image-rendering:optimizeQuality;shape-rendering:geometricPrecision;text-rendering:geometricPrecision"
   viewBox="0 0 104186.32 36978.149"
   id="svg19"
   sodipodi:docname="aptor_logo.svg"
   inkscape:version="0.92.1 r15371"><metadata
     id="metadata23"><rdf:RDF><cc:Work
         rdf:about=""><dc:format>image/svg+xml</dc:format><dc:type
           rdf:resource="http://purl.org/dc/dcmitype/StillImage" /></cc:Work></rdf:RDF></metadata><sodipodi:namedview
     pagecolor="#ffffff"
     bordercolor="#666666"
     borderopacity="1"
     objecttolerance="10"
     gridtolerance="10"
     guidetolerance="10"
     inkscape:pageopacity="0"
     inkscape:pageshadow="2"
     inkscape:window-width="1920"
     inkscape:window-height="1017"
     id="namedview21"
     showgrid="false"
     inkscape:zoom="0.077339744"
     inkscape:cx="2004.0387"
     inkscape:cy="631.74205"
     inkscape:window-x="-8"
     inkscape:window-y="-8"
     inkscape:window-maximized="1"
     inkscape:current-layer="svg19" /><defs
     id="defs4"><style
       type="text/css"
       id="style2"><![CDATA[
    .fil0 {fill:#333333}
    .fil1 {fill:#FF6600}
   ]]></style></defs><g
     id="Layer_x0020_1"
     transform="translate(-12660.687,-3999.8499)"><metadata
       id="CorelCorpID_0Corel-Layer" /><g
       id="_339222152496"><path
         class="fil0"
         d="m 71084,13431 -1828,13146 h -2473 l 242,-1538 -58,-58 c -1115,1233 -2293,1852 -3520,1852 -801,0 -1523,-232 -2183,-701 -659,-469 -1178,-1102 -1556,-1905 -378,-803 -567,-1673 -567,-2606 0,-1097 169,-2156 504,-3176 334,-1021 863,-1939 1576,-2761 717,-822 1639,-1475 2769,-1958 1135,-479 2468,-721 4015,-721 489,0 1038,39 1634,112 596,77 1077,184 1445,314 z m -3777,9355 1081,-7600 c -170,-19 -422,-29 -752,-29 -1517,0 -2720,358 -3608,1069 -887,710 -1502,1537 -1847,2470 -339,933 -509,1765 -509,2490 0,1049 242,1909 732,2586 485,672 1106,1011 1852,1011 311,0 660,-97 1043,-290 383,-194 747,-440 1091,-735 349,-300 655,-624 917,-972 z m 10542,-12710 -470,3355 c 397,-169 756,-281 1081,-338 349,-58 728,-88 1135,-88 785,0 1508,155 2167,460 660,309 1228,735 1707,1276 481,542 854,1189 1130,1939 277,754 413,1566 413,2446 0,1209 -277,2418 -829,3626 -558,1209 -1426,2215 -2619,3022 -1188,808 -2668,1214 -4437,1214 h -1635 l -868,6319 h -2473 l 2318,-16622 c -504,358 -979,846 -1430,1460 -451,614 -699,923 -747,923 -73,0 -112,-63 -112,-183 0,-464 267,-1122 796,-1978 528,-856 1105,-1518 1730,-1992 l 670,-4839 z m -727,5178 -1334,9611 h 1193 c 1184,0 2197,-290 3036,-865 838,-576 1454,-1305 1857,-2190 402,-885 606,-1779 606,-2684 0,-1392 -359,-2446 -1081,-3161 -718,-721 -1600,-1079 -2643,-1079 -539,0 -1081,121 -1634,368 z m 17205,-1823 -267,1910 h -2618 l -1247,7228 c -58,348 -87,647 -87,904 0,464 106,793 325,986 218,193 567,290 1037,290 675,0 1470,-261 2392,-778 l -146,2436 c -960,387 -1867,581 -2720,581 -1101,0 -1959,-276 -2566,-827 -606,-556 -911,-1276 -911,-2161 0,-68 24,-291 73,-667 l 1372,-7992 h -2313 l 300,-1910 h 2386 l 499,-2693 h 2444 l -451,2693 z m 12036,5314 c 0,1208 -160,2325 -485,3355 -320,1030 -756,1900 -1314,2615 -553,711 -1212,1267 -1978,1669 -767,401 -1576,604 -2416,604 -1013,0 -1891,-237 -2638,-711 -742,-469 -1309,-1145 -1697,-2031 -388,-885 -582,-1933 -582,-3152 0,-1504 272,-2872 815,-4109 548,-1238 1299,-2210 2260,-2916 965,-710 2022,-1064 3176,-1064 737,0 1411,136 2018,411 605,276 1119,658 1532,1156 416,493 742,1092 969,1799 229,701 340,1494 340,2374 z m -8578,2605 c 0,1030 223,1866 669,2515 441,647 989,971 1629,971 674,0 1300,-266 1876,-793 578,-531 1034,-1271 1368,-2224 335,-957 504,-2025 504,-3219 0,-1083 -208,-1963 -630,-2626 -422,-667 -989,-1001 -1697,-1001 -684,0 -1304,295 -1872,885 -572,590 -1018,1373 -1353,2340 -329,967 -494,2016 -494,3152 z m 14844,-7919 -384,2461 53,58 c 514,-725 951,-1286 1310,-1683 359,-396 703,-672 1023,-831 320,-155 699,-232 1135,-232 388,0 751,77 1081,227 v 2789 c -519,-294 -1028,-439 -1523,-439 -441,0 -843,106 -1198,319 -353,213 -712,556 -1066,1025 -354,474 -771,1151 -1241,2026 l -1024,7426 h -2473 l 1833,-13146 z"
         id="path7"
         inkscape:connector-curvature="0"
         style="fill:#333333" /><path
         class="fil1"
         d="m 81154,33345 v 1125 c -607,-500 -1144,-750 -1609,-750 -204,0 -376,56 -515,171 -140,115 -209,258 -209,433 0,171 126,357 378,558 251,200 508,398 771,594 262,196 491,424 687,685 196,262 293,568 293,918 0,248 -42,478 -124,686 -83,210 -198,389 -345,541 -148,150 -324,264 -532,344 -206,79 -424,118 -653,118 -333,0 -627,-52 -887,-158 -259,-106 -580,-299 -963,-579 l 173,-1037 c 669,556 1216,835 1641,835 129,0 245,-27 353,-79 104,-52 188,-127 249,-221 59,-94 89,-200 89,-322 0,-211 -77,-390 -230,-538 -152,-146 -409,-356 -774,-629 -364,-271 -635,-531 -817,-776 -182,-246 -273,-542 -273,-884 0,-491 152,-887 459,-1187 305,-298 711,-448 1217,-448 531,0 1071,200 1621,600 z m 5326,1872 c 0,521 -66,1003 -198,1446 -131,443 -309,819 -536,1127 -226,306 -495,545 -808,718 -312,173 -643,260 -985,260 -414,0 -772,-101 -1077,-306 -303,-202 -535,-493 -693,-874 -158,-381 -237,-833 -237,-1358 0,-648 110,-1237 332,-1771 224,-532 530,-952 923,-1255 393,-307 825,-459 1296,-459 301,0 576,59 823,178 248,118 457,283 625,497 171,213 303,471 396,775 93,302 139,644 139,1022 z m -3501,1123 c 0,444 91,804 273,1083 180,279 404,419 665,419 275,0 530,-115 766,-342 235,-229 422,-548 558,-958 137,-412 206,-873 206,-1387 0,-466 -85,-846 -258,-1131 -172,-287 -403,-431 -692,-431 -279,0 -533,127 -764,381 -234,255 -416,592 -552,1008 -135,417 -202,869 -202,1358 z m 7267,-3412 -132,940 h -1079 l -859,7110 h -986 l 859,-7110 h -859 l 133,-940 h 841 c 63,-922 309,-1663 736,-2222 430,-560 1041,-839 1835,-839 382,0 814,89 1292,268 l -144,1061 c -360,-211 -709,-317 -1045,-317 -325,0 -606,80 -848,236 -239,156 -427,391 -567,703 -139,313 -226,684 -261,1110 z m 3197,0 -110,823 h -1068 l -509,3114 c -24,150 -35,279 -35,390 0,200 43,341 132,425 89,83 231,124 424,124 274,0 599,-112 975,-335 l -59,1049 c -392,167 -762,250 -1111,250 -449,0 -799,-118 -1046,-356 -247,-239 -373,-549 -373,-930 0,-30 10,-126 30,-288 l 561,-3443 h -944 l 122,-823 h 974 l 203,-1159 h 998 l -184,1159 z m 7631,0 -2746,5774 h -477 l -688,-3711 h -24 l -1804,3711 h -466 l -1102,-5774 h 987 l 638,3814 h 23 l 1736,-3814 h 499 l 666,3814 h 24 l 1746,-3814 z m 4676,0 -746,5664 h -1009 l 99,-663 -24,-25 c -455,531 -936,798 -1437,798 -326,0 -621,-100 -890,-302 -270,-202 -481,-475 -636,-821 -154,-346 -231,-720 -231,-1122 0,-473 69,-929 206,-1368 136,-440 352,-836 643,-1190 293,-354 668,-635 1130,-844 463,-206 1007,-310 1638,-310 200,0 424,17 667,48 244,34 440,79 590,135 z m -1542,4031 442,-3274 c -69,-8 -173,-13 -307,-13 -619,0 -1110,154 -1473,461 -361,306 -613,662 -754,1064 -138,402 -207,760 -207,1072 0,452 99,823 299,1114 197,290 451,436 756,436 126,0 269,-42 425,-125 156,-84 305,-190 445,-317 143,-129 268,-268 374,-418 z m 4020,-4031 -157,1061 22,25 c 210,-313 388,-554 535,-725 146,-171 287,-290 417,-358 131,-67 285,-100 463,-100 159,0 307,33 442,97 v 1202 c -212,-127 -420,-189 -622,-189 -180,0 -344,46 -489,137 -144,92 -291,240 -435,442 -144,204 -315,495 -507,872 l -417,3200 h -1009 l 748,-5664 z m 6010,4183 -144,1026 c -539,421 -1132,631 -1781,631 -442,0 -832,-114 -1174,-341 -342,-227 -604,-552 -785,-971 -183,-418 -274,-895 -274,-1428 0,-458 66,-890 194,-1290 131,-402 307,-749 531,-1043 225,-296 493,-527 803,-696 311,-168 645,-254 1001,-254 351,0 671,99 960,296 287,198 515,477 681,838 167,360 249,772 249,1241 0,179 -11,358 -35,537 h -3329 c -29,163 -45,341 -45,535 0,367 65,675 198,929 130,254 304,441 520,567 218,123 449,185 697,185 495,0 1072,-254 1733,-762 z m -2944,-2204 h 2230 c 0,-379 -81,-687 -242,-924 -160,-236 -400,-354 -720,-354 -576,0 -999,426 -1268,1278 z"
         id="path9"
         inkscape:connector-curvature="0"
         style="fill:#ff6600" /><g
         id="g15"><path
           class="fil1"
           d="M 18190,29257 C 23286,16116 26369,12438 29450,9147 41409,-3630 50767,20146 48688,22228 47452,23468 44655,19160 41119,15968 37390,12598 28071,6794 17853,13569 c -11380,7540 -652,18244 337,15688 z m -820,-1463 C 18221,26093 26258,5620 35683,4093 45104,2564 51983,20291 51220,25489 50453,30684 44187,21033 40096,17235 35824,13271 25992,8018 17002,15606 c -7458,6293 -447,13826 368,12188 z"
           id="path11"
           inkscape:connector-curvature="0"
           style="fill:#ff6600" /><polygon
           class="fil1"
           points="28551,10537 28005,11207 27024,11965 24985,11965 26840,10553 27926,9865 29232,9304 28143,10541 "
           id="polygon13"
           style="fill:#ff6600" /></g></g></g></svg>